# xmcd
#
# Track frame offsets:
#	150
#	21112
#	40429
#	60516
#	82253
#	104175
#	124402
#	141614
#	163376
#	181853
#	197265
#	215777
#	232064
#	250856
#
# Disc length: 3589 seconds
#
# Revision: 0
# Processed by: cddbd v1.5.2PL0 Copyright (c) Steve Scherf et al.
# Submitted via: EasyCDDAExtractor 11.0.3.1
#
DISCID=dd0e030e
DTITLE=Various Artist - 2007 Mainstream Stepper Vol 9
DYEAR=2007
DGENRE=R&B
TTITLE0=Ledisi - Alright
TTITLE1=Ledisi - Someday
TTITLE2=Raheem DeVaughn - Woman
TTITLE3=Project X - The Truth
TTITLE4=Rahsaan Patterson - Stop Breaking My Heart
TTITLE5=Rahsaan Patterson - Feels Good
TTITLE6=Keyshia Cole - Losing You
TTITLE7=J. Holiday - Back Of My Lac
TTITLE8=Jill Scott - Whenever You're Around
TTITLE9=Trey Songz - Can't Help But Wait
TTITLE10=Alicia Keys - No One
TTITLE11=Queen Latifah - What Love Has Joined 
TTITLE12=Common w/ D'Angelo - So Far To Go
TTITLE13=Kanye West - Flash Lights
EXTD=
EXTT0=
EXTT1=
EXTT2=
EXTT3=
EXTT4=
EXTT5=
EXTT6=
EXTT7=
EXTT8=
EXTT9=
EXTT10=
EXTT11=
EXTT12=
EXTT13=
PLAYORDER=
